# xmcd
# 
# Track frame offsets:
#     150
#     11450
#     21962
#     28500
#     38412
#     48182
#     60935
#     71962
#     89822
#     104037
#     119425
#     131387
#     142062
# 
# Disc length: 2018
# 
# Revision: 4
# Processed by: cddbd v1.5.2PL0 Copyright (c) Steve Scherf et al.
# Submitted via: fre:ac v1.0.27
# 
DISCID=b207e00d
DTITLE=Various Artist - White Boy Blues
DYEAR=1987
DGENRE=Blues
TTITLE0=Eric Clapton - Snake Drive
TTITLE1=Eric Clapton - West Coast Idea
TTITLE2=Eric Clapton, and Jimmy Page - Choker
TTITLE3=John Mayall and The Bluesbreakers - I'm Your Witchdoctor
TTITLE4=Eric Clapton - Tribute To Elmore
TTITLE5=Eric Clapton and Jimmy Page - Freight Loader
TTITLE6=Eric Clapton and Jimmy Page - Miles Road
TTITLE7=John Mayall and The Bluesbreakers - Telephone Blues
TTITLE8=Eric Clapton and Jimmy Page - Draggin' My Tail
TTITLE9=Jimmy Page and the All Stars - Down In The Boots
TTITLE10=Jeff Beck and the All Stars - Steelin'
TTITLE11=Jeff Beck and the All Stars - Chuckles
TTITLE12=Jimmy Page and the All Stars - L.A. Breakdown
EXTD=YEAR: 1987
EXTT0=
EXTT1=
EXTT2=
EXTT3=
EXTT4=
EXTT5=
EXTT6=
EXTT7=
EXTT8=
EXTT9=
EXTT10=
EXTT11=
EXTT12=
PLAYORDER=
